<?xml version="1.0" standalone="no"?>
<!DOCTYPE svg PUBLIC "-//W3C//DTD SVG 20010904//EN"
 "http://www.w3.org/TR/2001/REC-SVG-20010904/DTD/svg10.dtd">
<svg version="1.0" xmlns="http://www.w3.org/2000/svg"
 width="256.000000pt" height="256.000000pt" viewBox="0 0 256.000000 256.000000"
 preserveAspectRatio="xMidYMid meet">

<g transform="translate(0.000000,256.000000) scale(0.100000,-0.100000)"
fill="#000000" stroke="none">
<path d="M2260 1846 c-115 -69 -438 -256 -767 -445 l-213 -123 0 -235 c0 -129
-3 -233 -8 -231 -4 2 -35 19 -70 38 l-62 35 0 160 0 160 -63 35 c-34 19 -65
37 -69 38 -5 2 -8 -30 -8 -72 0 -42 -3 -76 -6 -76 -3 0 -33 16 -65 35 -33 19
-62 35 -65 35 -3 0 -4 -34 -2 -75 2 -41 0 -75 -4 -75 -4 0 -34 16 -67 35 l-61
36 0 157 0 158 -65 37 c-35 20 -67 37 -70 37 -3 0 -5 -31 -5 -70 0 -38 -3 -70
-7 -70 -3 0 -35 17 -70 37 l-64 38 2 78 c1 42 0 79 -2 81 -9 7 -130 76 -135
76 -2 0 -4 -34 -4 -75 0 -72 -5 -85 -26 -67 -5 5 -30 21 -56 36 l-48 27 0
-245 0 -244 65 -37 65 -36 0 -75 0 -75 -65 37 -66 36 3 -162 3 -161 129 -75
c71 -41 130 -74 132 -74 2 0 4 33 6 74 l3 74 68 -39 67 -40 0 -77 0 -77 158
-90 c86 -49 208 -120 271 -157 63 -38 118 -68 123 -68 4 0 8 32 8 71 0 39 3
69 8 67 4 -1 31 -16 60 -32 l52 -29 0 -73 c0 -40 4 -76 10 -79 5 -3 128 63
272 146 145 84 389 225 543 315 l280 162 3 636 c1 350 -1 636 -5 635 -5 0 -55
-29 -113 -63z m-1812 -480 c2 -42 -1 -76 -5 -76 -4 1 -33 16 -63 34 l-55 32
-3 78 -3 78 63 -35 63 -35 3 -76z m211 -211 l61 -36 0 -75 0 -76 -32 20 c-18
10 -48 28 -65 38 -32 18 -33 19 -33 91 0 40 2 73 4 73 3 0 32 -16 65 -35z
m280 -321 l61 -36 0 -75 0 -75 -32 20 c-18 10 -48 28 -65 38 -32 18 -33 19
-33 91 0 40 2 73 4 73 3 0 32 -16 65 -36z m-79 -187 l0 -78 -62 35 -63 35 -3
80 -3 80 66 -37 65 -37 0 -78z m-200 29 l55 -32 5 -77 c3 -42 3 -77 0 -76 -3
0 -32 17 -65 38 l-60 38 -3 71 c-2 40 1 72 5 72 4 -1 33 -16 63 -34z m279
-161 l61 -36 0 -74 0 -74 -65 37 -65 37 0 73 c0 39 2 72 4 72 3 0 32 -16 65
-35z"/>
</g>
</svg>
